<svg xmlns="http://www.w3.org/2000/svg" width="50" height="43.75" viewBox="0 0 50 43.75">
  <path id="briefcase-solid" d="M31.25,61.688a1.562,1.562,0,0,1-1.562,1.563H20.313a1.562,1.562,0,0,1-1.562-1.562V57H0V71.063A4.806,4.806,0,0,0,4.688,75.75H45.313A4.806,4.806,0,0,0,50,71.063V57H31.25ZM45.313,41.375H37.5V36.688A4.806,4.806,0,0,0,32.813,32H17.188A4.806,4.806,0,0,0,12.5,36.688v4.688H4.688A4.806,4.806,0,0,0,0,46.063v7.813H50V46.063A4.806,4.806,0,0,0,45.313,41.375Zm-14.062,0H18.75V38.25h12.5Z" transform="translate(0 -32)" fill="#fff"/>
</svg>
