<svg xmlns="http://www.w3.org/2000/svg" width="49.209" height="39.37" viewBox="0 0 49.209 39.37">
  <path id="user-edit-solid" d="M17.224,19.685A9.842,9.842,0,1,0,7.382,9.842,9.842,9.842,0,0,0,17.224,19.685Zm6.89,2.461H22.829a13.385,13.385,0,0,1-11.211,0H10.334A10.337,10.337,0,0,0,0,32.48v3.2a3.692,3.692,0,0,0,3.691,3.691H24.829a3.693,3.693,0,0,1-.2-1.638l.523-4.683.092-.854.607-.607L31.8,25.644A10.229,10.229,0,0,0,24.114,22.145ZM27.6,33.318l-.523,4.69a1.224,1.224,0,0,0,1.353,1.353l4.683-.523,10.6-10.6L38.2,22.722ZM48.673,20.676l-2.914-2.914a1.842,1.842,0,0,0-2.6,0l-2.907,2.907-.315.315L45.459,26.5l3.214-3.214A1.852,1.852,0,0,0,48.673,20.676Z" fill="#284b63"/>
</svg>
